<?xml version="1.0" encoding="UTF-8" standalone="no"?>
<svg
   version="1.1"
   id="Layer_1"
   x="0px"
   y="0px"
   width="100%"
   viewBox="0 0 441 396"
   enable-background="new 0 0 441 396"
   xml:space="preserve"
   sodipodi:docname="logo.svg"
   inkscape:version="1.4.2 (f4327f4, 2025-05-13)"
   inkscape:export-filename="logo.png"
   inkscape:export-xdpi="96"
   inkscape:export-ydpi="96"
   xmlns:inkscape="http://www.inkscape.org/namespaces/inkscape"
   xmlns:sodipodi="http://sodipodi.sourceforge.net/DTD/sodipodi-0.dtd"
   xmlns="http://www.w3.org/2000/svg"
   xmlns:svg="http://www.w3.org/2000/svg"><defs
   id="defs102" /><sodipodi:namedview
   id="namedview102"
   pagecolor="#ffffff"
   bordercolor="#000000"
   borderopacity="0.25"
   inkscape:showpageshadow="2"
   inkscape:pageopacity="0.0"
   inkscape:pagecheckerboard="0"
   inkscape:deskcolor="#d1d1d1"
   inkscape:zoom="1.0568182"
   inkscape:cx="167.95699"
   inkscape:cy="233.24731"
   inkscape:window-width="1920"
   inkscape:window-height="1017"
   inkscape:window-x="-8"
   inkscape:window-y="-8"
   inkscape:window-maximized="1"
   inkscape:current-layer="Layer_1" />











































<path
   fill="#FA5A00"
   opacity="1.000000"
   stroke="none"
   d=" M216.658356,197.473938   C207.452438,188.536514 198.481873,179.878159 189.691650,171.040405   C181.824219,163.130417 174.165619,155.012970 166.396713,147.004669   C155.575562,135.850067 156.021637,122.084183 167.361847,111.388931   C182.747726,96.878105 197.986099,82.210999 213.333527,67.659218   C224.155823,57.397984 237.853302,57.659431 248.345612,68.344635   C262.814819,83.079819 277.256256,97.842781 291.630920,112.670143   C304.071075,125.502113 303.943817,137.883636 291.054810,150.388916   C275.995605,164.999741 260.786011,179.457016 245.537140,193.870285   C237.239258,201.713425 227.693848,202.859955 216.658356,197.473938  z"
   id="path44" />
<path
   fill="#F8A773"
   opacity="1.000000"
   stroke="none"
   d=" M285.143433,168.147522   C289.634888,163.898026 293.747559,159.758011 298.077728,155.859543   C307.593353,147.292511 321.642242,147.255692 330.660614,156.317581   C346.753937,172.488541 362.621521,188.890259 378.323669,205.441940   C386.465912,214.024673 386.496460,227.949783 378.042847,236.278976   C361.438354,252.639038 344.563141,268.740112 327.383698,284.494476   C318.260986,292.860382 304.465759,292.037720 295.698700,283.202271   C280.096802,267.478638 264.620209,251.627289 249.287292,235.641312   C239.311569,225.240677 239.751099,211.401001 250.120071,201.426773   C261.641113,190.344315 273.277252,179.381500 285.143433,168.147522  z"
   id="path45" />
<path
   fill="#B5855D"
   opacity="1.000000"
   stroke="none"
   d=" M285.080627,325.074402   C270.114258,339.328339 255.424377,353.357086 240.682892,367.331421   C229.833755,377.615845 216.096298,377.572083 205.598038,366.927887   C190.282547,351.399567 175.108826,335.729156 160.024979,319.975403   C150.595474,310.127106 150.803528,296.361938 160.546188,286.925171   C176.451462,271.519257 192.453110,256.209991 208.588867,241.045898   C218.689346,231.553696 232.810013,232.060303 242.586380,242.017044   C257.168091,256.867828 271.625793,271.840424 286.210449,286.688293   C298.628845,299.330872 298.371429,312.700012 285.080627,325.074402  z"
   id="path46" />
<path
   fill="#6B5E56"
   opacity="1.000000"
   stroke="none"
   d=" M106.648407,169.651459   C112.405899,164.072006 117.820641,158.641296 123.436989,153.427750   C135.760544,141.988037 149.138809,142.407196 160.847565,154.493210   C175.569977,169.690002 190.450394,184.739380 204.918961,200.174500   C214.724304,210.634872 214.228073,223.615112 203.987549,233.545502   C188.201019,248.853882 172.299988,264.046936 156.280396,279.111206   C146.441788,288.363098 132.497131,288.113434 123.032516,278.557312   C107.439789,262.813812 91.955391,246.960983 76.577904,231.007156   C67.076546,221.149643 67.673004,206.580750 77.712250,197.029938   C87.247543,187.958527 96.833443,178.940308 106.648407,169.651459  z"
   id="path47" />























































</svg>
